<svg width="21" height="21" viewBox="0 0 21 21" fill="none" xmlns="http://www.w3.org/2000/svg">
<path d="M3.79937 11.8728L9.73452 17.4483L9.73455 17.4483C9.89111 17.5954 9.9694 17.6689 10.0556 17.704C10.1763 17.7531 10.3115 17.7531 10.4322 17.704C10.5184 17.6689 10.5967 17.5954 10.7533 17.4483L10.7533 17.4483L16.6885 11.8728C18.3584 10.3041 18.5612 7.72269 17.1567 5.91248L16.8926 5.5721C15.2124 3.40657 11.8399 3.76975 10.6594 6.24334C10.4926 6.59275 9.99523 6.59275 9.82846 6.24334C8.64789 3.76975 5.27538 3.40657 3.59523 5.5721L3.33115 5.91248C1.92667 7.72269 2.12946 10.3041 3.79937 11.8728Z" stroke="#2D4255" stroke-width="2"/>
</svg>
