<svg width="29" height="29" viewBox="0 0 29 29" fill="none" xmlns="http://www.w3.org/2000/svg">
<path d="M14.5 26.5832C21.1735 26.5832 26.5833 21.1733 26.5833 14.4999C26.5833 7.82646 21.1735 2.41656 14.5 2.41656C7.82657 2.41656 2.41668 7.82646 2.41668 14.4999C2.41668 21.1733 7.82657 26.5832 14.5 26.5832Z" stroke="#C7D9E5" stroke-width="1.5" stroke-linecap="round" stroke-linejoin="round"/>
<path d="M9.66664 3.625H10.875C8.51873 10.6817 8.51873 18.3183 10.875 25.375H9.66664" stroke="#C7D9E5" stroke-width="1.5" stroke-linecap="round" stroke-linejoin="round"/>
<path d="M18.125 3.625C20.4813 10.6817 20.4813 18.3183 18.125 25.375" stroke="#C7D9E5" stroke-width="1.5" stroke-linecap="round" stroke-linejoin="round"/>
<path d="M3.625 19.3333V18.125C10.6817 20.4813 18.3183 20.4813 25.375 18.125V19.3333" stroke="#C7D9E5" stroke-width="1.5" stroke-linecap="round" stroke-linejoin="round"/>
<path d="M3.625 10.8751C10.6817 8.51885 18.3183 8.51885 25.375 10.8751" stroke="#C7D9E5" stroke-width="1.5" stroke-linecap="round" stroke-linejoin="round"/>
</svg>
